<mxfile host="app.diagrams.net" modified="2024-01-25T10:01:13.788Z" agent="Mozilla/5.0 (Windows NT 10.0; Win64; x64) AppleWebKit/537.36 (KHTML, like Gecko) Chrome/120.0.0.0 Safari/537.36 Edg/120.0.0.0" version="22.1.21" etag="SzpOQmqHiIsyhInYyOAQ" type="github">
  <diagram name="Seite-1" id="Y2eTcdnf6RNrX3q037uT">
    <mxGraphModel>
      <root>
        <mxCell id="0" />
        <mxCell id="1" parent="0" />
      </root>
    </mxGraphModel>
  </diagram>
</mxfile>
